<mxfile host="app.diagrams.net" agent="Mozilla/5.0 (Windows NT 10.0; Win64; x64) AppleWebKit/537.36 (KHTML, like Gecko) Chrome/137.0.0.0 Safari/537.36" version="27.1.4">
  <diagram name="Page-1" id="XoK1jJjTGzlrzbfamRMe">
    <mxGraphModel dx="1426" dy="811" grid="1" gridSize="10" guides="1" tooltips="1" connect="1" arrows="1" fold="1" page="1" pageScale="1" pageWidth="3300" pageHeight="4681" math="0" shadow="0">
      <root>
        <mxCell id="0" />
        <mxCell id="1" parent="0" />
        <mxCell id="LtSPVIWwQfMaKUlvjwQu-3" value="" style="edgeStyle=orthogonalEdgeStyle;rounded=0;orthogonalLoop=1;jettySize=auto;html=1;dashed=1;" parent="1" source="LtSPVIWwQfMaKUlvjwQu-1" target="LtSPVIWwQfMaKUlvjwQu-2" edge="1">
          <mxGeometry relative="1" as="geometry" />
        </mxCell>
        <mxCell id="LtSPVIWwQfMaKUlvjwQu-5" value="Uses" style="edgeLabel;html=1;align=center;verticalAlign=middle;resizable=0;points=[];" parent="LtSPVIWwQfMaKUlvjwQu-3" vertex="1" connectable="0">
          <mxGeometry x="-0.0433" y="-2" relative="1" as="geometry">
            <mxPoint as="offset" />
          </mxGeometry>
        </mxCell>
        <mxCell id="LtSPVIWwQfMaKUlvjwQu-7" value="" style="edgeStyle=orthogonalEdgeStyle;rounded=0;orthogonalLoop=1;jettySize=auto;html=1;entryX=0.5;entryY=0;entryDx=0;entryDy=0;dashed=1;" parent="1" source="LtSPVIWwQfMaKUlvjwQu-1" target="LtSPVIWwQfMaKUlvjwQu-14" edge="1">
          <mxGeometry relative="1" as="geometry" />
        </mxCell>
        <mxCell id="LtSPVIWwQfMaKUlvjwQu-8" value="returns" style="edgeLabel;html=1;align=center;verticalAlign=middle;resizable=0;points=[];" parent="LtSPVIWwQfMaKUlvjwQu-7" vertex="1" connectable="0">
          <mxGeometry x="-0.235" y="-1" relative="1" as="geometry">
            <mxPoint as="offset" />
          </mxGeometry>
        </mxCell>
        <mxCell id="LtSPVIWwQfMaKUlvjwQu-1" value="Authenticator" style="html=1;whiteSpace=wrap;" parent="1" vertex="1">
          <mxGeometry x="830" y="280" width="110" height="50" as="geometry" />
        </mxCell>
        <mxCell id="LtSPVIWwQfMaKUlvjwQu-15" style="edgeStyle=orthogonalEdgeStyle;rounded=0;orthogonalLoop=1;jettySize=auto;html=1;exitX=1;exitY=0.5;exitDx=0;exitDy=0;dashed=1;entryX=1;entryY=0.5;entryDx=0;entryDy=0;" parent="1" source="LtSPVIWwQfMaKUlvjwQu-2" target="LtSPVIWwQfMaKUlvjwQu-12" edge="1">
          <mxGeometry relative="1" as="geometry">
            <Array as="points">
              <mxPoint x="1410" y="385" />
              <mxPoint x="1410" y="895" />
            </Array>
          </mxGeometry>
        </mxCell>
        <mxCell id="LtSPVIWwQfMaKUlvjwQu-16" value="instantiates" style="edgeLabel;html=1;align=center;verticalAlign=middle;resizable=0;points=[];" parent="LtSPVIWwQfMaKUlvjwQu-15" vertex="1" connectable="0">
          <mxGeometry x="-0.0563" y="1" relative="1" as="geometry">
            <mxPoint as="offset" />
          </mxGeometry>
        </mxCell>
        <mxCell id="LtSPVIWwQfMaKUlvjwQu-17" style="edgeStyle=orthogonalEdgeStyle;rounded=0;orthogonalLoop=1;jettySize=auto;html=1;exitX=0;exitY=0.5;exitDx=0;exitDy=0;entryX=1;entryY=0.5;entryDx=0;entryDy=0;dashed=1;" parent="1" source="LtSPVIWwQfMaKUlvjwQu-2" target="LtSPVIWwQfMaKUlvjwQu-10" edge="1">
          <mxGeometry relative="1" as="geometry" />
        </mxCell>
        <mxCell id="LtSPVIWwQfMaKUlvjwQu-19" value="instantiates" style="edgeLabel;html=1;align=center;verticalAlign=middle;resizable=0;points=[];" parent="LtSPVIWwQfMaKUlvjwQu-17" vertex="1" connectable="0">
          <mxGeometry x="0.4811" y="3" relative="1" as="geometry">
            <mxPoint as="offset" />
          </mxGeometry>
        </mxCell>
        <mxCell id="LtSPVIWwQfMaKUlvjwQu-20" style="edgeStyle=orthogonalEdgeStyle;rounded=0;orthogonalLoop=1;jettySize=auto;html=1;exitX=0.5;exitY=1;exitDx=0;exitDy=0;dashed=1;entryX=1;entryY=0.5;entryDx=0;entryDy=0;" parent="1" source="LtSPVIWwQfMaKUlvjwQu-2" target="LtSPVIWwQfMaKUlvjwQu-21" edge="1">
          <mxGeometry relative="1" as="geometry">
            <mxPoint x="1280" y="435" as="targetPoint" />
            <Array as="points">
              <mxPoint x="1225" y="410" />
              <mxPoint x="1225" y="645" />
            </Array>
          </mxGeometry>
        </mxCell>
        <mxCell id="LtSPVIWwQfMaKUlvjwQu-35" value="Uses" style="edgeLabel;html=1;align=center;verticalAlign=middle;resizable=0;points=[];" parent="LtSPVIWwQfMaKUlvjwQu-20" vertex="1" connectable="0">
          <mxGeometry x="-0.0929" y="1" relative="1" as="geometry">
            <mxPoint as="offset" />
          </mxGeometry>
        </mxCell>
        <mxCell id="LtSPVIWwQfMaKUlvjwQu-2" value="AccountReader" style="html=1;whiteSpace=wrap;" parent="1" vertex="1">
          <mxGeometry x="1190" y="360" width="110" height="50" as="geometry" />
        </mxCell>
        <mxCell id="LtSPVIWwQfMaKUlvjwQu-11" value="" style="edgeStyle=orthogonalEdgeStyle;rounded=0;orthogonalLoop=1;jettySize=auto;html=1;endArrow=block;endFill=0;entryX=1;entryY=0.5;entryDx=0;entryDy=0;dashed=1;" parent="1" source="LtSPVIWwQfMaKUlvjwQu-10" target="LtSPVIWwQfMaKUlvjwQu-14" edge="1">
          <mxGeometry relative="1" as="geometry" />
        </mxCell>
        <mxCell id="LtSPVIWwQfMaKUlvjwQu-26" value="" style="edgeStyle=orthogonalEdgeStyle;rounded=0;orthogonalLoop=1;jettySize=auto;html=1;endArrow=diamondThin;endFill=1;entryX=0.25;entryY=1;entryDx=0;entryDy=0;endSize=10;" parent="1" source="LtSPVIWwQfMaKUlvjwQu-25" target="LtSPVIWwQfMaKUlvjwQu-10" edge="1">
          <mxGeometry relative="1" as="geometry">
            <Array as="points">
              <mxPoint x="655" y="460" />
              <mxPoint x="858" y="460" />
              <mxPoint x="858" y="410" />
            </Array>
          </mxGeometry>
        </mxCell>
        <mxCell id="LtSPVIWwQfMaKUlvjwQu-31" value="has" style="edgeLabel;html=1;align=center;verticalAlign=middle;resizable=0;points=[];" parent="LtSPVIWwQfMaKUlvjwQu-26" vertex="1" connectable="0">
          <mxGeometry x="-0.0856" y="2" relative="1" as="geometry">
            <mxPoint as="offset" />
          </mxGeometry>
        </mxCell>
        <mxCell id="LtSPVIWwQfMaKUlvjwQu-10" value="AdminAccount" style="html=1;whiteSpace=wrap;" parent="1" vertex="1">
          <mxGeometry x="830" y="360" width="110" height="50" as="geometry" />
        </mxCell>
        <mxCell id="LtSPVIWwQfMaKUlvjwQu-29" style="edgeStyle=orthogonalEdgeStyle;rounded=0;orthogonalLoop=1;jettySize=auto;html=1;exitX=0.5;exitY=0;exitDx=0;exitDy=0;entryX=0.5;entryY=1;entryDx=0;entryDy=0;dashed=1;" parent="1" source="LtSPVIWwQfMaKUlvjwQu-12" target="LtSPVIWwQfMaKUlvjwQu-30" edge="1">
          <mxGeometry relative="1" as="geometry">
            <mxPoint x="1175.1052631578948" y="660" as="targetPoint" />
            <Array as="points">
              <mxPoint x="885" y="830" />
            </Array>
          </mxGeometry>
        </mxCell>
        <mxCell id="LtSPVIWwQfMaKUlvjwQu-33" value="Uses" style="edgeLabel;html=1;align=center;verticalAlign=middle;resizable=0;points=[];" parent="LtSPVIWwQfMaKUlvjwQu-29" vertex="1" connectable="0">
          <mxGeometry x="-0.0571" y="3" relative="1" as="geometry">
            <mxPoint x="-3" as="offset" />
          </mxGeometry>
        </mxCell>
        <mxCell id="LtSPVIWwQfMaKUlvjwQu-54" style="edgeStyle=orthogonalEdgeStyle;rounded=0;orthogonalLoop=1;jettySize=auto;html=1;exitX=0;exitY=0.5;exitDx=0;exitDy=0;startArrow=diamondThin;startFill=1;endArrow=none;startSize=10;entryX=1;entryY=1;entryDx=0;entryDy=0;" parent="1" source="LtSPVIWwQfMaKUlvjwQu-12" target="LtSPVIWwQfMaKUlvjwQu-55" edge="1">
          <mxGeometry relative="1" as="geometry">
            <mxPoint x="570" y="880" as="targetPoint" />
            <Array as="points">
              <mxPoint x="770" y="895" />
              <mxPoint x="770" y="870" />
              <mxPoint x="620" y="870" />
              <mxPoint x="620" y="840" />
            </Array>
          </mxGeometry>
        </mxCell>
        <mxCell id="LtSPVIWwQfMaKUlvjwQu-70" value="Owns" style="edgeLabel;html=1;align=center;verticalAlign=middle;resizable=0;points=[];" parent="LtSPVIWwQfMaKUlvjwQu-54" vertex="1" connectable="0">
          <mxGeometry x="-0.1607" y="1" relative="1" as="geometry">
            <mxPoint x="-27" y="-1" as="offset" />
          </mxGeometry>
        </mxCell>
        <mxCell id="LtSPVIWwQfMaKUlvjwQu-12" value="CustomerAccount" style="html=1;whiteSpace=wrap;" parent="1" vertex="1">
          <mxGeometry x="830" y="870" width="110" height="50" as="geometry" />
        </mxCell>
        <mxCell id="LtSPVIWwQfMaKUlvjwQu-14" value="«interface»&lt;br&gt;&lt;b&gt;IAccount&lt;/b&gt;" style="html=1;whiteSpace=wrap;" parent="1" vertex="1">
          <mxGeometry x="440" y="360" width="110" height="50" as="geometry" />
        </mxCell>
        <mxCell id="LtSPVIWwQfMaKUlvjwQu-36" style="edgeStyle=orthogonalEdgeStyle;rounded=0;orthogonalLoop=1;jettySize=auto;html=1;exitX=1;exitY=1;exitDx=0;exitDy=0;dashed=1;entryX=0;entryY=0.5;entryDx=0;entryDy=0;" parent="1" source="LtSPVIWwQfMaKUlvjwQu-21" target="LtSPVIWwQfMaKUlvjwQu-38" edge="1">
          <mxGeometry relative="1" as="geometry">
            <mxPoint x="1670" y="435" as="targetPoint" />
            <Array as="points">
              <mxPoint x="1150" y="670" />
              <mxPoint x="1150" y="795" />
            </Array>
          </mxGeometry>
        </mxCell>
        <mxCell id="LtSPVIWwQfMaKUlvjwQu-37" value="Uses" style="edgeLabel;html=1;align=center;verticalAlign=middle;resizable=0;points=[];" parent="LtSPVIWwQfMaKUlvjwQu-36" vertex="1" connectable="0">
          <mxGeometry x="-0.4074" y="1" relative="1" as="geometry">
            <mxPoint as="offset" />
          </mxGeometry>
        </mxCell>
        <mxCell id="LtSPVIWwQfMaKUlvjwQu-41" value="" style="edgeStyle=orthogonalEdgeStyle;rounded=0;orthogonalLoop=1;jettySize=auto;html=1;startArrow=diamondThin;startFill=1;endSize=10;endArrow=none;startSize=10;exitX=0;exitY=0.5;exitDx=0;exitDy=0;entryX=0.5;entryY=0;entryDx=0;entryDy=0;" parent="1" source="LtSPVIWwQfMaKUlvjwQu-21" target="LtSPVIWwQfMaKUlvjwQu-40" edge="1">
          <mxGeometry relative="1" as="geometry">
            <Array as="points">
              <mxPoint x="725" y="645" />
            </Array>
          </mxGeometry>
        </mxCell>
        <mxCell id="LtSPVIWwQfMaKUlvjwQu-49" value="Contains" style="edgeLabel;html=1;align=center;verticalAlign=middle;resizable=0;points=[];" parent="LtSPVIWwQfMaKUlvjwQu-41" vertex="1" connectable="0">
          <mxGeometry x="0.0008" y="-3" relative="1" as="geometry">
            <mxPoint x="20" y="3" as="offset" />
          </mxGeometry>
        </mxCell>
        <mxCell id="LtSPVIWwQfMaKUlvjwQu-46" style="edgeStyle=orthogonalEdgeStyle;rounded=0;orthogonalLoop=1;jettySize=auto;html=1;dashed=1;entryX=0;entryY=0.5;entryDx=0;entryDy=0;exitX=1;exitY=0.5;exitDx=0;exitDy=0;" parent="1" source="LtSPVIWwQfMaKUlvjwQu-30" target="LtSPVIWwQfMaKUlvjwQu-47" edge="1">
          <mxGeometry relative="1" as="geometry">
            <mxPoint x="1680" y="540" as="targetPoint" />
            <mxPoint x="1050" y="690" as="sourcePoint" />
            <Array as="points">
              <mxPoint x="970" y="795" />
              <mxPoint x="970" y="795" />
            </Array>
          </mxGeometry>
        </mxCell>
        <mxCell id="LtSPVIWwQfMaKUlvjwQu-63" value="Uses" style="edgeLabel;html=1;align=center;verticalAlign=middle;resizable=0;points=[];" parent="LtSPVIWwQfMaKUlvjwQu-46" vertex="1" connectable="0">
          <mxGeometry x="0.6522" y="1" relative="1" as="geometry">
            <mxPoint x="-28" y="1" as="offset" />
          </mxGeometry>
        </mxCell>
        <mxCell id="LtSPVIWwQfMaKUlvjwQu-50" style="edgeStyle=orthogonalEdgeStyle;rounded=0;orthogonalLoop=1;jettySize=auto;html=1;exitX=0.5;exitY=0;exitDx=0;exitDy=0;entryX=0.5;entryY=1;entryDx=0;entryDy=0;" parent="1" source="LtSPVIWwQfMaKUlvjwQu-21" target="LtSPVIWwQfMaKUlvjwQu-52" edge="1">
          <mxGeometry relative="1" as="geometry">
            <mxPoint x="885.2857142857144" y="570" as="targetPoint" />
          </mxGeometry>
        </mxCell>
        <mxCell id="LtSPVIWwQfMaKUlvjwQu-21" value="Catalogue" style="html=1;whiteSpace=wrap;" parent="1" vertex="1">
          <mxGeometry x="830" y="620" width="110" height="50" as="geometry" />
        </mxCell>
        <mxCell id="LtSPVIWwQfMaKUlvjwQu-42" style="edgeStyle=orthogonalEdgeStyle;rounded=0;orthogonalLoop=1;jettySize=auto;html=1;exitX=0.5;exitY=1;exitDx=0;exitDy=0;entryX=1;entryY=0;entryDx=0;entryDy=0;dashed=1;" parent="1" source="LtSPVIWwQfMaKUlvjwQu-27" target="LtSPVIWwQfMaKUlvjwQu-21" edge="1">
          <mxGeometry relative="1" as="geometry">
            <Array as="points">
              <mxPoint x="1145" y="620" />
            </Array>
          </mxGeometry>
        </mxCell>
        <mxCell id="LtSPVIWwQfMaKUlvjwQu-43" value="Uses" style="edgeLabel;html=1;align=center;verticalAlign=middle;resizable=0;points=[];" parent="LtSPVIWwQfMaKUlvjwQu-42" vertex="1" connectable="0">
          <mxGeometry x="-0.2236" y="2" relative="1" as="geometry">
            <mxPoint x="-37" y="-2" as="offset" />
          </mxGeometry>
        </mxCell>
        <mxCell id="LtSPVIWwQfMaKUlvjwQu-25" value="StatisticsManager" style="html=1;whiteSpace=wrap;" parent="1" vertex="1">
          <mxGeometry x="530" y="480" width="110" height="50" as="geometry" />
        </mxCell>
        <mxCell id="LtSPVIWwQfMaKUlvjwQu-51" style="edgeStyle=orthogonalEdgeStyle;rounded=0;orthogonalLoop=1;jettySize=auto;html=1;exitX=1;exitY=0.5;exitDx=0;exitDy=0;entryX=0;entryY=0.5;entryDx=0;entryDy=0;dashed=1;" parent="1" source="LtSPVIWwQfMaKUlvjwQu-25" target="LtSPVIWwQfMaKUlvjwQu-52" edge="1">
          <mxGeometry relative="1" as="geometry">
            <mxPoint x="940" y="495" as="targetPoint" />
            <Array as="points">
              <mxPoint x="790" y="505" />
              <mxPoint x="790" y="505" />
            </Array>
          </mxGeometry>
        </mxCell>
        <mxCell id="LtSPVIWwQfMaKUlvjwQu-53" value="Reads Order Data" style="edgeLabel;html=1;align=center;verticalAlign=middle;resizable=0;points=[];" parent="LtSPVIWwQfMaKUlvjwQu-51" vertex="1" connectable="0">
          <mxGeometry x="-0.0063" y="-1" relative="1" as="geometry">
            <mxPoint as="offset" />
          </mxGeometry>
        </mxCell>
        <mxCell id="LtSPVIWwQfMaKUlvjwQu-27" value="ProductManager" style="html=1;whiteSpace=wrap;" parent="1" vertex="1">
          <mxGeometry x="1090" y="480" width="110" height="50" as="geometry" />
        </mxCell>
        <mxCell id="LtSPVIWwQfMaKUlvjwQu-28" style="edgeStyle=orthogonalEdgeStyle;rounded=0;orthogonalLoop=1;jettySize=auto;html=1;exitX=0.5;exitY=0;exitDx=0;exitDy=0;entryX=0.75;entryY=1;entryDx=0;entryDy=0;endArrow=diamondThin;endFill=1;startSize=10;endSize=10;" parent="1" source="LtSPVIWwQfMaKUlvjwQu-27" target="LtSPVIWwQfMaKUlvjwQu-10" edge="1">
          <mxGeometry relative="1" as="geometry">
            <Array as="points">
              <mxPoint x="1085" y="460" />
              <mxPoint x="913" y="460" />
              <mxPoint x="913" y="410" />
            </Array>
          </mxGeometry>
        </mxCell>
        <mxCell id="LtSPVIWwQfMaKUlvjwQu-32" value="has" style="edgeLabel;html=1;align=center;verticalAlign=middle;resizable=0;points=[];" parent="LtSPVIWwQfMaKUlvjwQu-28" vertex="1" connectable="0">
          <mxGeometry x="0.1077" y="1" relative="1" as="geometry">
            <mxPoint as="offset" />
          </mxGeometry>
        </mxCell>
        <mxCell id="LtSPVIWwQfMaKUlvjwQu-44" style="edgeStyle=orthogonalEdgeStyle;rounded=0;orthogonalLoop=1;jettySize=auto;html=1;exitX=0.5;exitY=0;exitDx=0;exitDy=0;entryX=0.5;entryY=1;entryDx=0;entryDy=0;dashed=1;" parent="1" source="LtSPVIWwQfMaKUlvjwQu-30" target="LtSPVIWwQfMaKUlvjwQu-21" edge="1">
          <mxGeometry relative="1" as="geometry" />
        </mxCell>
        <mxCell id="LtSPVIWwQfMaKUlvjwQu-45" value="Uses" style="edgeLabel;html=1;align=center;verticalAlign=middle;resizable=0;points=[];" parent="LtSPVIWwQfMaKUlvjwQu-44" vertex="1" connectable="0">
          <mxGeometry x="-0.6744" relative="1" as="geometry">
            <mxPoint as="offset" />
          </mxGeometry>
        </mxCell>
        <mxCell id="LtSPVIWwQfMaKUlvjwQu-30" value="CartManager" style="html=1;whiteSpace=wrap;" parent="1" vertex="1">
          <mxGeometry x="830" y="770" width="110" height="50" as="geometry" />
        </mxCell>
        <mxCell id="LtSPVIWwQfMaKUlvjwQu-38" value="ProductReader" style="html=1;whiteSpace=wrap;" parent="1" vertex="1">
          <mxGeometry x="1170" y="770" width="110" height="50" as="geometry" />
        </mxCell>
        <mxCell id="LtSPVIWwQfMaKUlvjwQu-40" value="Product" style="html=1;whiteSpace=wrap;" parent="1" vertex="1">
          <mxGeometry x="670" y="660" width="110" height="50" as="geometry" />
        </mxCell>
        <mxCell id="LtSPVIWwQfMaKUlvjwQu-47" value="Payment" style="html=1;whiteSpace=wrap;" parent="1" vertex="1">
          <mxGeometry x="1010" y="770" width="110" height="50" as="geometry" />
        </mxCell>
        <mxCell id="LtSPVIWwQfMaKUlvjwQu-48" value="" style="edgeStyle=orthogonalEdgeStyle;rounded=0;orthogonalLoop=1;jettySize=auto;html=1;endArrow=block;endFill=0;entryX=0;entryY=0.5;entryDx=0;entryDy=0;dashed=1;" parent="1" target="LtSPVIWwQfMaKUlvjwQu-14" edge="1">
          <mxGeometry relative="1" as="geometry">
            <mxPoint x="920" y="920" as="sourcePoint" />
            <mxPoint x="760" y="450" as="targetPoint" />
            <Array as="points">
              <mxPoint x="920" y="1050" />
              <mxPoint x="290" y="1050" />
              <mxPoint x="290" y="385" />
            </Array>
          </mxGeometry>
        </mxCell>
        <mxCell id="LtSPVIWwQfMaKUlvjwQu-64" style="edgeStyle=orthogonalEdgeStyle;rounded=0;orthogonalLoop=1;jettySize=auto;html=1;exitX=0.25;exitY=1;exitDx=0;exitDy=0;entryX=1;entryY=0.5;entryDx=0;entryDy=0;dashed=1;" parent="1" source="LtSPVIWwQfMaKUlvjwQu-52" target="LtSPVIWwQfMaKUlvjwQu-65" edge="1">
          <mxGeometry relative="1" as="geometry">
            <mxPoint x="620" y="570" as="targetPoint" />
            <Array as="points">
              <mxPoint x="858" y="605" />
            </Array>
          </mxGeometry>
        </mxCell>
        <mxCell id="LtSPVIWwQfMaKUlvjwQu-66" value="Manages" style="edgeLabel;html=1;align=center;verticalAlign=middle;resizable=0;points=[];" parent="LtSPVIWwQfMaKUlvjwQu-64" vertex="1" connectable="0">
          <mxGeometry x="0.053" y="-3" relative="1" as="geometry">
            <mxPoint x="-2" y="3" as="offset" />
          </mxGeometry>
        </mxCell>
        <mxCell id="LtSPVIWwQfMaKUlvjwQu-73" style="edgeStyle=orthogonalEdgeStyle;rounded=0;orthogonalLoop=1;jettySize=auto;html=1;exitX=0;exitY=1;exitDx=0;exitDy=0;dashed=1;" parent="1" source="LtSPVIWwQfMaKUlvjwQu-52" target="LtSPVIWwQfMaKUlvjwQu-71" edge="1">
          <mxGeometry relative="1" as="geometry" />
        </mxCell>
        <mxCell id="LtSPVIWwQfMaKUlvjwQu-75" value="Uses for writing" style="edgeLabel;html=1;align=center;verticalAlign=middle;resizable=0;points=[];" parent="LtSPVIWwQfMaKUlvjwQu-73" vertex="1" connectable="0">
          <mxGeometry x="0.1439" relative="1" as="geometry">
            <mxPoint as="offset" />
          </mxGeometry>
        </mxCell>
        <mxCell id="luP0aieuDg7XFQIJE9ro-1" style="edgeStyle=orthogonalEdgeStyle;rounded=0;orthogonalLoop=1;jettySize=auto;html=1;exitX=1;exitY=0.5;exitDx=0;exitDy=0;entryX=0.5;entryY=0;entryDx=0;entryDy=0;dashed=1;" edge="1" parent="1" source="LtSPVIWwQfMaKUlvjwQu-52" target="luP0aieuDg7XFQIJE9ro-2">
          <mxGeometry relative="1" as="geometry">
            <mxPoint x="1010" y="540" as="targetPoint" />
          </mxGeometry>
        </mxCell>
        <mxCell id="luP0aieuDg7XFQIJE9ro-3" value="Uses" style="edgeLabel;html=1;align=center;verticalAlign=middle;resizable=0;points=[];" vertex="1" connectable="0" parent="luP0aieuDg7XFQIJE9ro-1">
          <mxGeometry x="-0.2667" y="2" relative="1" as="geometry">
            <mxPoint as="offset" />
          </mxGeometry>
        </mxCell>
        <mxCell id="LtSPVIWwQfMaKUlvjwQu-52" value="OrderManager" style="html=1;whiteSpace=wrap;" parent="1" vertex="1">
          <mxGeometry x="830" y="480" width="110" height="50" as="geometry" />
        </mxCell>
        <mxCell id="LtSPVIWwQfMaKUlvjwQu-58" style="edgeStyle=orthogonalEdgeStyle;rounded=0;orthogonalLoop=1;jettySize=auto;html=1;exitX=1;exitY=0.5;exitDx=0;exitDy=0;entryX=0;entryY=0.5;entryDx=0;entryDy=0;startArrow=diamondThin;startFill=1;endArrow=none;startSize=10;" parent="1" source="LtSPVIWwQfMaKUlvjwQu-55" target="LtSPVIWwQfMaKUlvjwQu-59" edge="1">
          <mxGeometry relative="1" as="geometry">
            <mxPoint x="715.304347826087" y="820" as="targetPoint" />
          </mxGeometry>
        </mxCell>
        <mxCell id="LtSPVIWwQfMaKUlvjwQu-62" value="contains" style="edgeLabel;html=1;align=center;verticalAlign=middle;resizable=0;points=[];" parent="LtSPVIWwQfMaKUlvjwQu-58" vertex="1" connectable="0">
          <mxGeometry x="0.2209" relative="1" as="geometry">
            <mxPoint x="-8" as="offset" />
          </mxGeometry>
        </mxCell>
        <mxCell id="LtSPVIWwQfMaKUlvjwQu-55" value="Cart" style="html=1;whiteSpace=wrap;" parent="1" vertex="1">
          <mxGeometry x="490" y="790" width="110" height="50" as="geometry" />
        </mxCell>
        <mxCell id="LtSPVIWwQfMaKUlvjwQu-57" style="edgeStyle=orthogonalEdgeStyle;rounded=0;orthogonalLoop=1;jettySize=auto;html=1;exitX=0.5;exitY=0;exitDx=0;exitDy=0;entryX=0.5;entryY=1;entryDx=0;entryDy=0;dashed=1;" parent="1" source="LtSPVIWwQfMaKUlvjwQu-56" target="LtSPVIWwQfMaKUlvjwQu-55" edge="1">
          <mxGeometry relative="1" as="geometry" />
        </mxCell>
        <mxCell id="LtSPVIWwQfMaKUlvjwQu-67" value="Uses to build invoice" style="edgeLabel;html=1;align=center;verticalAlign=middle;resizable=0;points=[];" parent="LtSPVIWwQfMaKUlvjwQu-57" vertex="1" connectable="0">
          <mxGeometry x="0.0166" y="3" relative="1" as="geometry">
            <mxPoint x="12" y="-3" as="offset" />
          </mxGeometry>
        </mxCell>
        <mxCell id="LtSPVIWwQfMaKUlvjwQu-56" value="Invoice" style="html=1;whiteSpace=wrap;" parent="1" vertex="1">
          <mxGeometry x="490" y="910" width="110" height="50" as="geometry" />
        </mxCell>
        <mxCell id="LtSPVIWwQfMaKUlvjwQu-60" style="edgeStyle=orthogonalEdgeStyle;rounded=0;orthogonalLoop=1;jettySize=auto;html=1;exitX=0.5;exitY=0;exitDx=0;exitDy=0;entryX=0.5;entryY=1;entryDx=0;entryDy=0;dashed=1;" parent="1" source="LtSPVIWwQfMaKUlvjwQu-59" target="LtSPVIWwQfMaKUlvjwQu-40" edge="1">
          <mxGeometry relative="1" as="geometry" />
        </mxCell>
        <mxCell id="LtSPVIWwQfMaKUlvjwQu-61" value="refers to" style="edgeLabel;html=1;align=center;verticalAlign=middle;resizable=0;points=[];" parent="LtSPVIWwQfMaKUlvjwQu-60" vertex="1" connectable="0">
          <mxGeometry x="-0.0986" y="-2" relative="1" as="geometry">
            <mxPoint as="offset" />
          </mxGeometry>
        </mxCell>
        <mxCell id="LtSPVIWwQfMaKUlvjwQu-59" value="CartItem" style="html=1;whiteSpace=wrap;" parent="1" vertex="1">
          <mxGeometry x="670" y="790" width="110" height="50" as="geometry" />
        </mxCell>
        <mxCell id="LtSPVIWwQfMaKUlvjwQu-68" style="edgeStyle=orthogonalEdgeStyle;rounded=0;orthogonalLoop=1;jettySize=auto;html=1;exitX=0.5;exitY=1;exitDx=0;exitDy=0;entryX=0.5;entryY=0;entryDx=0;entryDy=0;dashed=1;" parent="1" source="LtSPVIWwQfMaKUlvjwQu-65" target="LtSPVIWwQfMaKUlvjwQu-55" edge="1">
          <mxGeometry relative="1" as="geometry" />
        </mxCell>
        <mxCell id="LtSPVIWwQfMaKUlvjwQu-69" value="copies items from" style="edgeLabel;html=1;align=center;verticalAlign=middle;resizable=0;points=[];" parent="LtSPVIWwQfMaKUlvjwQu-68" vertex="1" connectable="0">
          <mxGeometry x="-0.3012" y="1" relative="1" as="geometry">
            <mxPoint as="offset" />
          </mxGeometry>
        </mxCell>
        <mxCell id="LtSPVIWwQfMaKUlvjwQu-65" value="Order" style="html=1;whiteSpace=wrap;" parent="1" vertex="1">
          <mxGeometry x="490" y="580" width="110" height="50" as="geometry" />
        </mxCell>
        <mxCell id="LtSPVIWwQfMaKUlvjwQu-72" style="edgeStyle=orthogonalEdgeStyle;rounded=0;orthogonalLoop=1;jettySize=auto;html=1;exitX=0;exitY=0.5;exitDx=0;exitDy=0;entryX=1;entryY=0.5;entryDx=0;entryDy=0;dashed=1;" parent="1" source="LtSPVIWwQfMaKUlvjwQu-65" target="LtSPVIWwQfMaKUlvjwQu-71" edge="1">
          <mxGeometry relative="1" as="geometry" />
        </mxCell>
        <mxCell id="LtSPVIWwQfMaKUlvjwQu-74" value="Uses" style="edgeLabel;html=1;align=center;verticalAlign=middle;resizable=0;points=[];" parent="LtSPVIWwQfMaKUlvjwQu-72" vertex="1" connectable="0">
          <mxGeometry x="-0.0836" relative="1" as="geometry">
            <mxPoint as="offset" />
          </mxGeometry>
        </mxCell>
        <mxCell id="LtSPVIWwQfMaKUlvjwQu-76" style="edgeStyle=orthogonalEdgeStyle;rounded=0;orthogonalLoop=1;jettySize=auto;html=1;exitX=0.5;exitY=1;exitDx=0;exitDy=0;entryX=0.5;entryY=1;entryDx=0;entryDy=0;startArrow=classic;startFill=0;endArrow=none;dashed=1;" parent="1" source="LtSPVIWwQfMaKUlvjwQu-71" target="LtSPVIWwQfMaKUlvjwQu-12" edge="1">
          <mxGeometry relative="1" as="geometry">
            <Array as="points">
              <mxPoint x="375" y="1000" />
              <mxPoint x="885" y="1000" />
            </Array>
          </mxGeometry>
        </mxCell>
        <mxCell id="LtSPVIWwQfMaKUlvjwQu-77" value="Provides shipping" style="edgeLabel;html=1;align=center;verticalAlign=middle;resizable=0;points=[];" parent="LtSPVIWwQfMaKUlvjwQu-76" vertex="1" connectable="0">
          <mxGeometry x="0.3022" relative="1" as="geometry">
            <mxPoint as="offset" />
          </mxGeometry>
        </mxCell>
        <mxCell id="LtSPVIWwQfMaKUlvjwQu-71" value="ShipmentInfo" style="html=1;whiteSpace=wrap;" parent="1" vertex="1">
          <mxGeometry x="320" y="580" width="110" height="50" as="geometry" />
        </mxCell>
        <mxCell id="luP0aieuDg7XFQIJE9ro-2" value="OrderManager" style="html=1;whiteSpace=wrap;" vertex="1" parent="1">
          <mxGeometry x="970" y="540" width="110" height="50" as="geometry" />
        </mxCell>
      </root>
    </mxGraphModel>
  </diagram>
</mxfile>
